<svg xmlns="http://www.w3.org/2000/svg" width="400" height="340">
    <linearGradient id="grad1" x1="0%" y1="0%" x2="100%" y2="0%">
        <stop offset="0%" style="stop-color:#8c9776;stop-opacity:1"/>
        <stop offset="100%" style="stop-color:#4e653a;stop-opacity:1"/>
    </linearGradient>
    <path fill="url(#grad1)"
          d="M287.49234796873935,257.318347933546C278.78705018127954,273.45402302765285,294.55453239610756,298.6410168199834,287.2066289952166,316.81405056464087C279.8587255943256,334.9870843092983,261.2481007476767,360.69356641728444,243.40492756339336,366.3565504014907C225.56175437911003,372.019534385697,199.92403277124419,357.3672469175538,180.14758988951667,350.7919544698784C160.37114700778915,344.216662022203,129.9424077294457,343.8050997089987,124.74627027302829,326.90479571543835C119.55013281661086,310.004491721878,157.2854805151631,267.20759646108957,148.9707651510121,249.3901305085165C140.6560497868611,231.57266455594345,80.25569140006576,232.396111900137,74.85797808812237,220.00000000000003C69.46026477617897,207.60388809986307,100.89398041852198,183.58197757248348,116.58448527935171,175.01345910769473C132.27499014018144,166.44494064290598,155.6675902489064,170.88696754613687,169.00100725310077,168.5888892112675C182.33442425729513,166.29081087639815,184.97429172468446,173.5881977500161,196.5849873045178,161.2249890984786C208.19568288435113,148.8617804469411,228.0313846256256,95.14451173320509,238.66518073210085,94.40963730204264C249.2989768385761,93.67476287088019,247.0203295751842,144.62216975282283,260.38776394336935,156.81574251150388C273.7551983115545,169.00931527018494,305.69467831177735,157.04036427271302,318.8697869412117,167.57107385412905C332.0448955706461,178.1017834355451,344.6679888820543,205.04212098676385,339.4384157199756,220C334.20884255789684,234.95787901323615,296.19764575619917,241.18267283943922,287.49234796873935,257.318347933546"
          stroke="none" stroke-width="3"/>
</svg>